# xmcd CD database file generated by OrangeCD 4.3
#
# Track frame offsets:
#	150
#	8225
#	18712
#	28912
#	38437
#	52237
#	62887
#	73312
#	83962
#	93862
#	102112
#	113887
#	125512
#	138487
#	149887
#	160012
#	172087
#	185212
#	195112
#	208237
#
# Disc length: 2888 seconds
#
# Revision: 0
# Processed by: cddbd v1.4PL0 Copyright (c) Steve Scherf et al.
# Submitted via: OrangeCD 4.3
#
DISCID=2f0b4614
DTITLE=The Chiffons - 20 Of Their Best
DYEAR=1995
DGENRE=Soul
TTITLE0=Oh, My Lover
TTITLE1=Only My Friend
TTITLE2=I'm Gonna Dry My Eyes
TTITLE3=Strange, Strange Feeling
TTITLE4=What Am I Going To Do?
TTITLE5=Did You Ever Go Strady?
TTITLE6=Just A Boy
TTITLE7=March
TTITLE8=Main Nerve
TTITLE9=Tonight I Met An Angel
TTITLE10=When Summer's Through
TTITLE11=Easy To Love
TTITLE12=Tonight I'm Gonna Dream
TTITLE13=The Heavenly Place
TTITLE14=I Got Plenty Of Nothing
TTITLE15=Teach Me How
TTITLE16=Love Me Like Your Gonna
TTITLE17=Three Dips Of Ice Cream
TTITLE18=If I Knew Then, What I Know Now
TTITLE19=Keep The Boy Happy
EXTD=
EXTT0=
EXTT1=
EXTT2=
EXTT3=
EXTT4=
EXTT5=
EXTT6=
EXTT7=
EXTT8=
EXTT9=
EXTT10=
EXTT11=
EXTT12=
EXTT13=
EXTT14=
EXTT15=
EXTT16=
EXTT17=
EXTT18=
EXTT19=
PLAYORDER=
